<svg id="Glyph" enable-background="new 0 0 64 64" height="1em" viewBox="0 0 64 64" width="1em" xmlns="http://www.w3.org/2000/svg"><path d="m49 3v4h5l-11.91 11.91c-2.66-2.43-6.2-3.91-10.09-3.91s-7.43 1.48-10.09 3.91l-3.41-3.41 2.5-2.5-3-3-2.5 2.5-5.5-5.5h5v-4h-12v12h4v-5l5.5 5.5-2.5 2.5 3 3 2.5-2.5 3.69 3.69c-1.39 2.27-2.19 4.95-2.19 7.81 0 7.6 5.66 13.89 13 14.86v7.14h-4v4h4v5h4v-5h4v-4h-4v-7.14c7.34-.97 13-7.26 13-14.86 0-2.86-.8-5.54-2.19-7.81l12.19-12.19v5h4v-12zm-17 37c-5.52 0-10-4.48-10-10s4.48-10 10-10 10 4.48 10 10-4.48 10-10 10z"/></svg>